<svg height="511pt" viewBox="-58 1 511 511.99994" width="511pt" xmlns="http://www.w3.org/2000/svg"><path d="m79.089844 234.628906v-16.828125c0-13.300781 10.78125-24.085937 24.085937-24.085937h204.808594v-157.652344c0-14.371094-11.648437-26.019531-26.019531-26.019531h-180.488282c-1.824218 0-3.636718.144531-5.417968.414062v52.773438c0 17.714843-14.363282 32.078125-32.078125 32.078125h-51.472657c-1.316406 3.84375-2.007812 7.902344-2.007812 12.03125v325.851562c0 14.371094 11.648438 26.019532 26.019531 26.019532h42.570313zm0 0" fill="#b1d9ff"/><path d="m96.058594 63.230469v-52.78125c-.472656.070312-.941406.152343-1.410156.238281-.097657.019531-.195313.039062-.292969.054688-.445313.089843-.890625.183593-1.332031.289062-.109376.023438-.214844.050781-.320313.078125-.449219.105469-.894531.21875-1.335937.34375-.050782.015625-.097657.03125-.148438.046875-1.386719.398438-2.746094.878906-4.074219 1.433594-.144531.0625-.292969.121094-.4375.183594-.34375.148437-.683593.304687-1.019531.464843-.199219.09375-.398438.1875-.597656.285157-.3125.15625-.625.3125-.933594.472656-.222656.121094-.445312.242187-.664062.363281-.289063.160156-.574219.316406-.855469.484375-.261719.152344-.523438.316406-.785157.480469-.324218.199219-.644531.402343-.960937.617187-.382813.25-.757813.507813-1.132813.777344-.195312.140625-.386718.289062-.578124.4375-.292969.214844-.582032.4375-.867188.664062-.195312.15625-.386719.3125-.578125.472657-.28125.234375-.558594.472656-.832031.714843-.179688.15625-.355469.316407-.53125.476563-.296875.273437-.589844.550781-.878906.835937-.140626.140626-.289063.277344-.433594.421876-.417969.425781-.828125.855468-1.230469 1.304687-.003906.003906-.011719.011719-.015625.019531l-20.195312 22.5625-33.65625 37.601563c-.019532.023437-.035157.042969-.054688.066406-.378906.425781-.75.863281-1.109375 1.304687-.113281.140626-.222656.289063-.335937.429688-.257813.332031-.519532.664062-.769532 1.003906-.113281.15625-.21875.3125-.332031.46875-.238281.339844-.476563.679688-.703125 1.023438-.101562.152344-.195312.304687-.292969.460937-.234375.359375-.460937.722657-.679687 1.09375-.082032.140625-.160156.28125-.242188.417969-.226562.394531-.445312.792969-.65625 1.195312-.0625.121094-.125.238282-.1875.359376-.222656.4375-.4375.875-.644531 1.320312-.042969.089844-.085937.183594-.128906.277344-.21875.484375-.429688.972656-.628907 1.46875-.019531.054687-.042968.109375-.066406.167968-.21875.550782-.425781 1.109376-.617187 1.671876 0 0-.003907.003906-.003907.003906h51.472657c17.714843 0 32.078125-14.359375 32.078125-32.078125zm0 0" fill="#f8f8f8"/><path d="m373.796875 236.300781-21.109375-30.085937c-5.496094-7.835938-14.46875-12.5-24.035156-12.5h-12.375v83.617187c0 10.445313-8.46875 18.914063-18.917969 18.914063h-133.367187c-10.449219 0-18.917969-8.46875-18.917969-18.914063v-83.617187h-41.898438c-13.300781 0-24.085937 10.785156-24.085937 24.085937v260.113281c0 13.300782 10.785156 24.085938 24.085937 24.085938h15.59375v-151.996094c0-7.527344 6.101563-13.628906 13.632813-13.628906h200.113281c7.53125 0 13.632813 6.101562 13.632813 13.628906v151.996094h15.59375c13.300781 0 24.085937-10.785156 24.085937-24.085938v-203.519531c0-13.632812-4.203125-26.933593-12.03125-38.09375zm0 0" fill="#ffcb78"/><path d="m145.074219 277.332031c0 10.445313 8.46875 18.914063 18.914062 18.914063h133.371094c10.445313 0 18.914063-8.46875 18.914063-18.914063v-83.617187h-171.199219zm101.652343-39.003906c0-9.140625 7.410157-16.554687 16.550782-16.554687h1.671875c9.140625 0 16.550781 7.414062 16.550781 16.554687v13.433594c0 9.601562-7.78125 17.386719-17.386719 17.386719-9.601562 0-17.386719-7.785157-17.386719-17.386719zm0 0" fill="#f8f8f8"/><path d="m264.113281 269.148438c9.601563 0 17.386719-7.785157 17.386719-17.386719v-13.433594c0-9.140625-7.410156-16.554687-16.554688-16.554687h-1.667968c-9.140625 0-16.554688 7.414062-16.554688 16.554687v13.433594c.003906 9.601562 7.785156 17.386719 17.390625 17.386719zm0 0" fill="#ff9d6a"/><path d="m332.515625 336.375h-200.117187c-7.527344 0-13.628907 6.101562-13.628907 13.628906v151.996094h227.378907v-151.996094c0-7.527344-6.105469-13.628906-13.632813-13.628906zm0 0" fill="#f8f8f8"/><path d="m381.980469 230.558594-21.109375-30.089844c-14.992188-21.371094-38.433594-15.96875-42.886719-16.753906v-147.652344c0-19.859375-16.160156-36.0195312-36.019531-36.0195312-193.351563.1875002-181.558594-.5624998-188.917969.7773432-10.492187 1.90625-19.871094 7.316407-26.683594 14.917969-59.230469 66.175781-56.347656 62.441407-59.648437 68.230469-4.074219 7.128906-6.214844 15.1875-6.214844 23.371094v325.851562c0 19.863282 16.160156 36.019532 36.019531 36.019532h32.570313v8.703124c0 18.796876 15.292968 34.085938 34.085937 34.085938h258.566407c18.792968 0 34.082031-15.289062 34.082031-34.085938v-203.519531c.003906-15.769531-4.785157-30.929687-13.84375-43.835937zm-226.910157-26.84375h151.207032v73.617187c0 4.917969-4 8.917969-8.917969 8.917969h-133.367187c-4.917969 0-8.917969-4-8.917969-8.917969v-73.617187zm-69.007812-178.851563v38.367188c0 12.175781-9.90625 22.082031-22.082031 22.082031h-33.046875c48.082031-53.699219 50.019531-56.929688 55.128906-60.449219zm42.707031 467.136719v-141.996094c0-2.003906 1.628907-3.632812 3.628907-3.632812h200.117187c2.003906 0 3.632813 1.628906 3.632813 3.632812v141.996094zm247.058594-14.085938c0 7.769532-6.320313 14.085938-14.085937 14.085938h-5.59375v-141.996094c0-13.027344-10.601563-23.628906-23.632813-23.628906h-200.117187c-13.027344 0-23.628907 10.601562-23.628907 23.628906v141.996094h-5.59375c-7.769531 0-14.085937-6.316406-14.085937-14.085938 0-32.246093 0-124.675781 0-163.292968 0-5.523438-4.476563-10-10-10-5.523438 0-10 4.476562-10 10v134.59375h-32.570313c-8.835937 0-16.023437-7.1875-16.023437-16.023438.035156-340.554687-.074219-325.769531.082031-327.882812h43.402344c23.203125 0 42.078125-18.875 42.078125-42.078125v-43.1875h175.90625c8.832031 0 16.019531 7.1875 16.019531 16.019531v147.652344c-5.464844 0-189.707031 0-194.808594 0-18.792969 0-34.085937 15.292968-34.085937 34.085937v16.828125c0 5.519532 4.476562 9.996094 10 9.996094 5.523437 0 10-4.476562 10-9.996094v-16.828125c0-7.765625 6.316406-14.085937 14.085937-14.085937h31.898438v73.617187c0 15.941407 12.972656 28.914063 28.914062 28.914063h133.371094c15.941406 0 28.914063-12.972656 28.914063-28.914063v-73.617187c.714843.148437 11.429687-1.445313 18.226562 8.242187l21.109375 30.085938c6.683594 9.527343 10.21875 20.714843 10.21875 32.351562zm0 0"/><path d="m264.113281 279.148438c15.101563 0 27.386719-12.289063 27.386719-27.390626v-13.429687c0-14.644531-11.914062-26.554687-26.554688-26.554687h-1.667968c-14.640625 0-26.550782 11.910156-26.550782 26.554687v13.429687c0 15.101563 12.285157 27.390626 27.386719 27.390626zm-7.390625-40.820313c0-8.785156 14.777344-8.792969 14.777344 0v13.433594c0 4.070312-3.3125 7.386719-7.386719 7.386719s-7.390625-3.3125-7.390625-7.386719zm0 0"/><path d="m294.207031 362.429688h-123.5c-5.519531 0-9.996093 4.480468-9.996093 10 0 5.523437 4.476562 10 9.996093 10h123.5c5.523438 0 10-4.476563 10-10 0-5.519532-4.476562-10-10-10zm0 0"/><path d="m294.207031 409.1875h-123.5c-5.519531 0-9.996093 4.480469-9.996093 10 0 5.523438 4.476562 10 9.996093 10h123.5c5.523438 0 10-4.476562 10-10 0-5.519531-4.476562-10-10-10zm0 0"/><path d="m294.207031 455.945312h-123.5c-5.519531 0-9.996093 4.476563-9.996093 10 0 5.519532 4.476562 9.996094 9.996093 9.996094h123.5c5.523438 0 10-4.476562 10-9.996094 0-5.523437-4.476562-10-10-10zm0 0"/><path d="m79.089844 264.636719c-5.523438 0-10 4.492187-10 10.011719 0 5.523437 4.476562 10 10 10 5.519531 0 9.996094-4.476563 9.996094-10v-.023438c0-5.523438-4.476563-9.988281-9.996094-9.988281zm0 0"/></svg>