<svg height="480pt" viewBox="0 -36 480 480" width="480pt" xmlns="http://www.w3.org/2000/svg"><path d="m464 168h-448c-4.417969 0-8-3.582031-8-8v-112c0-4.417969 3.582031-8 8-8h280l24-32h104v32h40c4.417969 0 8 3.582031 8 8v112c0 4.417969-3.582031 8-8 8zm0 0" fill="#d9d9d9"/><path d="m56 104h368v64h-368zm0 0" fill="#428dc5"/><path d="m104 136h272c8.835938 0 16 7.164062 16 16s-7.164062 16-16 16h-272c-8.835938 0-16-7.164062-16-16s7.164062-16 16-16zm0 0" fill="#787d82"/><path d="m112 136h256v232c0 13.253906-10.746094 24-24 24h-232zm0 0" fill="#fbd699"/><path d="m424 40h40c4.417969 0 8 3.582031 8 8v112c0 4.417969-3.582031 8-8 8h-40zm0 0" fill="#cdcdcd"/><path d="m104 104h272c8.835938 0 16 7.164062 16 16s-7.164062 16-16 16h-272c-8.835938 0-16-7.164062-16-16s7.164062-16 16-16zm0 0" fill="#a8a8a8"/><path d="m56 168h-40c-4.417969 0-8-3.582031-8-8v-112c0-4.417969 3.582031-8 8-8h40zm0 0" fill="#cdcdcd"/><path d="m56 40v64h368v-96h-104l-24 32zm0 0" fill="#d9d9d9"/><path d="m296 40h128v64h-128zm0 0" fill="#c0f5f9"/><path d="m16 168h32v232h-32zm0 0" fill="#a88e74"/><path d="m432 168h32v232h-32zm0 0" fill="#a88e74"/><path d="m16 168h32v24h-32zm0 0" fill="#8d7761"/><path d="m432 168h32v24h-32zm0 0" fill="#8d7761"/><path d="m392 208h16v16h-16zm0 0" fill="#c0f5f9"/><path d="m392 240h16v48h-16zm0 0" fill="#c0f5f9"/><path d="m312 216-68 88 76 88h24c13.253906 0 24-10.746094 24-24v-88zm0 0" fill="#85bc94"/><path d="m160 224h-17.128906c-3.613282-14.101562-16.3125-23.972656-30.871094-24v56h48c8.835938 0 16-7.164062 16-16s-7.164062-16-16-16zm0 0" fill="#c0f5f9"/><path d="m320 64h80v16h-80zm0 0" fill="#b8eaee"/><path d="m336 392h8l-86.671875-105.246094-49.328125 63.839844zm0 0" fill="#6b9777"/><path d="m142.59375 352 73.40625-96 80 97.144531zm0 0" fill="#8dc79d"/><path d="m340 392c-15.464844 0-28-12.535156-28-28v-20h-232c0 26.511719 5.488281 48 32 48zm0 0" fill="#fbedbf"/><path d="m96 64h16v16h-16zm0 0" fill="#99d8aa"/><path d="m128 64h16v16h-16zm0 0" fill="#f55648"/><path d="m160 64h16v16h-16zm0 0" fill="#428dc5"/><path d="m112 136h256v16h-256zm0 0" fill="#eecb91"/><path d="m192 176c-.007812 22.925781 16.199219 42.65625 38.6875 47.101562 22.488281 4.449219 44.984375-7.628906 53.703125-28.828124 8.722656-21.203126 1.230469-45.613282-17.878906-58.273438h-53.023438c-13.421875 8.882812-21.492187 23.90625-21.488281 40zm0 0" fill="#fd7422"/><path d="m198.496094 152h83.007812c-3.703125-6.414062-8.832031-11.886719-14.992187-16h-53.023438c-6.160156 4.113281-11.289062 9.585938-14.992187 16zm0 0" fill="#ec6c20"/><path d="m464 32h-32v-24c0-4.417969-3.582031-8-8-8h-104c-2.519531 0-4.890625 1.1875-6.398438 3.199219l-21.601562 28.800781h-276c-8.835938 0-16 7.164062-16 16v112c.015625 5.691406 3.066406 10.941406 8 13.777344v226.222656c0 4.417969 3.582031 8 8 8h32c4.417969 0 8-3.582031 8-8v-224h48v160h-24c-4.417969 0-8 3.582031-8 8 0 13.847656 0 56 40 56h232c17.671875 0 32-14.328125 32-32v-192h48v224c0 4.417969 3.582031 8 8 8h32c4.417969 0 8-3.582031 8-8v-226.222656c4.933594-2.835938 7.984375-8.085938 8-13.777344v-112c0-8.835938-7.164062-16-16-16zm0 16v112h-32v-112zm-184 128c0 18.808594-13.105469 35.078125-31.484375 39.082031-18.378906 4.003907-37.066406-5.335937-44.890625-22.445312-7.824219-17.105469-2.671875-37.351563 12.375-48.636719h48c10.082031 7.546875 16.015625 19.40625 16 32zm-13.488281-48h-162.511719c-4.417969 0-8-3.582031-8-8s3.582031-8 8-8h272c4.417969 0 8 3.582031 8 8s-3.582031 8-8 8zm-146.511719 81.390625c7.480469 2.699219 13.140625 8.917969 15.128906 16.617187.914063 3.527344 4.09375 5.988282 7.734375 5.992188h17.136719c4.417969 0 8 3.582031 8 8s-3.582031 8-8 8h-40zm-56-161.390625h224v48h-224zm352 48h-112v-48h112zm-22.238281 40c6.015625-6.445312 7.875-15.738281 4.796875-24h17.441406v48h-17.457031c3.0625-8.265625 1.203125-17.546875-4.800781-24zm-69.761719-120h92v16h-104zm-308 32h32v112h-32zm24 344h-16v-216h16zm24-280h17.472656c-3.082031 8.261719-1.222656 17.558594 4.800782 24-4.039063 4.347656-6.277344 10.066406-6.273438 16 .027344 2.730469.523438 5.4375 1.472656 8h-17.472656zm32 40c-.003906-2.160156.882812-4.222656 2.457031-5.703125 1.457031-1.488281 3.460938-2.316406 5.542969-2.296875v16c-4.417969 0-8-3.582031-8-8zm24 112h40c13.253906 0 24-10.746094 24-24s-10.746094-24-24-24h-11.457031c-5.199219-11.875-15.84375-20.484375-28.542969-23.089844v-48.910156h74.0625c-16.234375 23.285156-12.480469 55.03125 8.738281 73.886719 21.214844 18.855469 53.183594 18.855469 74.398438 0 21.21875-18.855469 24.972656-50.601563 8.738281-73.886719h74.0625v114.703125l-41.976562-48c-1.609376-1.75-3.886719-2.734375-6.261719-2.703125-2.394531.074219-4.628907 1.214844-6.089844 3.113281l-56.273437 72.886719-27.199219-33.0625c-1.5-1.953125-3.863281-3.042969-6.320313-2.914062-2.4375.050781-4.71875 1.207031-6.199218 3.144531l-64.878907 84.832031h-24.800781zm151.527344 72h-106.625l51.328125-67.136719zm-95.527344 48h-64c-13.167969 0-22.3125-5.679688-23.792969-32h215.792969v12c-.007812 7.125 2.109375 14.085938 6.078125 20zm168 0h-4c-11.046875 0-20-8.953125-20-20v-20c0-4.417969-3.582031-8-8-8h-19.753906l-32.414063-39.359375 52.550781-68.054687 47.617188 54.421874v84.992188c0 8.835938-7.164062 16-16 16zm32-240c4.417969 0 8 3.582031 8 8 .003906 2.160156-.882812 4.222656-2.457031 5.703125-1.457031 1.488281-3.460938 2.316406-5.542969 2.296875zm80 248h-16v-216h16zm0 0"/><path d="m96 64h16v16h-16zm0 0"/><path d="m128 64h16v16h-16zm0 0"/><path d="m160 64h16v16h-16zm0 0"/><path d="m392 208h16v16h-16zm0 0"/><path d="m392 240h16v48h-16zm0 0"/><path d="m320 64h80v16h-80zm0 0"/></svg>